<svg xmlns="http://www.w3.org/2000/svg" viewBox="0 0 256 256"><g  stroke="currentColor" stroke-linecap="round" stroke-linejoin="round" stroke-width="9"><path fill="none" d="M122.72 132.35c-8.03-3.4-13.67-11.35-13.67-20.63 0-12.36 10.02-22.39 22.39-22.39 12.36 0 22.39 10.02 22.39 22.39M91.52 183.7c0-14.89 10.05-27.66 24.37-33.12"/></g><g  stroke="currentColor" stroke-linecap="round" stroke-linejoin="round" stroke-width="9"><path fill="none" d="M164.1 136.3c12.8 0 23.17 10.37 23.17 23.17s-10.37 23.17-23.17 23.17-23.17-10.37-23.17-23.17 10.37-23.17 23.17-23.17M180.51 179.91l18.19 23.5"/></g><rect x="115.17" y="33.61" width="18.73" height="39.25" rx="2.38" ry="2.38" fill="none" stroke="currentColor" stroke-miterlimit="10" stroke-width="9"/><path d="M132.17 218.25h-66c-2.95 0-5.36-2.41-5.36-5.36V54.14c0-2.95 2.41-5.36 5.36-5.36h30.31M153.69 48.77h25.74c2.95 0 5.36 2.41 5.36 5.36v27.44" fill="none" stroke="currentColor" stroke-linecap="round" stroke-linejoin="round" stroke-width="9"/></svg>
